<?xml version="1.0" standalone="no"?>
<!DOCTYPE svg PUBLIC "-//W3C//DTD SVG 20010904//EN"
 "http://www.w3.org/TR/2001/REC-SVG-20010904/DTD/svg10.dtd">
<svg version="1.0" xmlns="http://www.w3.org/2000/svg"
 width="32pt" height="32pt" viewBox="0 0 1677.000000 1148.000000"
 preserveAspectRatio="xMidYMid meet">

<g transform="translate(0.000000,1148.000000) scale(0.100000,-0.100000)"
fill="#FFFFFF" stroke="none">
<path d="M16460 11314 c-107 -58 -247 -132 -310 -166 -63 -33 -180 -95 -260
-138 -318 -169 -449 -239 -545 -290 -55 -29 -122 -65 -150 -80 -27 -15 -99
-53 -160 -85 -60 -32 -175 -93 -255 -135 -424 -226 -620 -331 -760 -405 -354
-188 -489 -260 -570 -303 -143 -75 -367 -195 -525 -279 -82 -45 -188 -101
-235 -126 -249 -132 -870 -462 -1327 -706 -82 -43 -193 -102 -248 -131 -55
-29 -127 -67 -160 -85 -33 -18 -98 -53 -145 -77 -47 -25 -152 -81 -235 -125
-82 -44 -184 -98 -225 -120 -155 -82 -453 -241 -670 -358 -124 -66 -241 -127
-260 -135 -19 -8 -69 -33 -110 -55 -41 -23 -109 -59 -150 -80 -41 -21 -87 -47
-102 -57 -14 -10 -29 -18 -32 -18 -3 0 -6 224 -6 498 0 273 -3 1000 -7 1615
l-6 1117 -1098 0 -1097 0 -86 -262 c-248 -760 -1213 -3689 -1218 -3693 -3 -3
-301 886 -663 1975 l-659 1980 -1098 0 -1098 0 0 -2910 0 -2910 680 0 680 0 1
1163 c1 639 5 1665 8 2280 l6 1117 694 -2217 c382 -1220 704 -2246 715 -2280
l20 -63 706 0 705 0 714 2273 c393 1249 717 2279 722 2287 5 8 9 -841 9 -1887
0 -1047 3 -1903 6 -1903 5 0 396 253 834 540 74 49 230 150 345 225 116 75
271 176 345 225 74 49 230 150 345 225 116 75 270 176 343 223 72 48 297 195
500 327 202 131 457 298 567 370 326 213 695 453 852 556 82 53 450 293 818
534 369 240 722 471 785 512 63 41 230 149 370 241 141 92 314 205 385 251
178 117 875 571 1070 699 88 57 212 138 275 179 63 41 194 126 290 189 96 63
258 169 360 235 102 66 264 172 360 235 96 62 171 114 165 113 -5 0 -98 -47
-205 -105z"/>
<path d="M11443 7453 c-183 -120 -388 -254 -455 -298 -68 -44 -221 -144 -342
-222 l-219 -143 74 0 c212 -1 573 -21 647 -35 289 -55 474 -203 549 -434 23
-73 28 -263 9 -345 -57 -241 -250 -412 -548 -485 -162 -40 -245 -43 -1160 -48
l-888 -5 -2 251 -3 251 -120 -78 c-66 -43 -181 -118 -255 -167 -141 -92 -316
-206 -435 -283 -38 -25 -162 -106 -275 -180 -113 -74 -258 -169 -323 -211 -64
-42 -193 -125 -285 -186 -92 -60 -311 -204 -487 -318 -176 -115 -435 -284
-575 -375 -141 -92 -345 -225 -455 -297 -110 -71 -261 -170 -337 -220 -76 -49
-193 -126 -260 -170 -68 -44 -220 -143 -338 -220 -118 -77 -322 -210 -453
-295 -130 -85 -393 -257 -585 -382 -191 -125 -403 -263 -472 -308 -69 -45
-281 -183 -472 -308 -192 -125 -455 -297 -585 -382 -131 -85 -328 -213 -438
-285 -110 -72 -234 -153 -275 -180 -41 -27 -192 -125 -335 -218 -143 -94 -305
-199 -360 -235 -55 -36 -203 -133 -330 -215 -126 -83 -288 -188 -360 -235
-183 -119 -194 -126 -190 -130 2 -3 75 34 162 80 87 47 208 111 268 143 61 32
124 65 140 75 17 10 84 46 150 80 66 35 176 93 245 130 69 37 170 91 225 120
55 29 161 85 235 125 74 40 218 116 320 170 102 54 246 130 320 170 74 40 173
92 220 117 333 177 1090 580 1560 830 47 25 198 105 335 178 138 73 273 145
300 160 28 15 109 58 180 95 72 37 135 71 140 75 6 4 69 38 140 75 72 37 182
96 245 130 63 34 165 88 225 120 104 55 208 110 553 294 81 43 197 104 257
136 61 32 124 65 140 75 17 10 80 43 140 75 61 32 178 94 260 138 191 102 265
141 396 211 58 31 111 56 117 56 5 0 90 43 187 95 97 52 181 95 186 95 5 0 9
-422 9 -1086 l0 -1086 1648 5 c1889 6 2185 14 2482 68 418 75 732 229 991 488
245 245 411 565 464 896 19 118 19 348 0 461 -75 433 -365 797 -808 1013 -104
50 -381 150 -422 152 -11 0 25 22 80 48 567 270 890 789 835 1337 -25 253
-105 450 -265 659 -74 97 -243 259 -345 330 -118 83 -308 177 -453 224 -201
65 -143 83 -524 -166z m-488 -3002 c325 -26 454 -54 610 -131 201 -100 329
-251 382 -450 24 -90 23 -300 -1 -390 -62 -231 -237 -402 -491 -483 -202 -65
-274 -69 -1377 -74 l-968 -5 0 760 c0 418 3 768 6 777 6 16 67 17 853 12 488
-3 905 -10 986 -16z"/>
</g>
</svg>
